<svg xmlns="http://www.w3.org/2000/svg" width="182.404" height="194.985" viewBox="0 0 182.404 194.985">
  <g id="Group_1860" data-name="Group 1860" transform="translate(-5307.798 -1038.571)">
    <path id="Path_2666" data-name="Path 2666" d="M5335.485,1108.158l-.287-.143-.431.143-21.444,12.408a.91.91,0,0,1-1.365-.788h0v-80.3a.91.91,0,0,1,.91-.91H5327.4a.91.91,0,0,1,.91.91v53.046a.909.909,0,0,0,1.363.789l5.379-3.09.144-.143v.143l5.38,3.09a.909.909,0,0,0,1.362-.789v-53.046a.911.911,0,0,1,.91-.91h14.534a.91.91,0,0,1,.91.91v80.3a.91.91,0,0,1-1.365.788Z" fill="#fcc204"/>
    <path id="Path_2667" data-name="Path 2667" d="M5382.382,1038.571h29.072a.91.91,0,0,1,.91.91v44.463a.91.91,0,0,1-.91.91h-28.163a.909.909,0,0,0-.909.909V1103.6a.909.909,0,0,0,.909.91H5395.1a.909.909,0,0,0,.91-.91v-12h0a.91.91,0,0,1,1.366-.788l14.534,8.415a.911.911,0,0,1,.454.788v19.94a.909.909,0,0,1-.91.91h-44.517a.909.909,0,0,1-.909-.91v-80.47a.91.91,0,0,1,.909-.91Zm13.628,21.837v-4.484a.909.909,0,0,0-.91-.909h-11.809a.909.909,0,0,0-.909.909v11.666a.91.91,0,0,0,.909.91H5395.1a.91.91,0,0,0,.91-.91v-7.182Z" fill="#f65e7c"/>
    <path id="Path_2668" data-name="Path 2668" d="M5341.94,1129.116h15.507a.847.847,0,0,1,.847.847v72.367a.846.846,0,0,1-1.271.733l-27.44-15.886a.847.847,0,0,0-1.271.733v22.649a.847.847,0,0,1-.847.847h-14.66a.847.847,0,0,1-.847-.847v-30.3a.847.847,0,0,1,.847-.847h.244a.847.847,0,0,0,.418-1.584l-1.509-.855-3.742-2.193a.848.848,0,0,1-.418-.731V1158.18h0a.847.847,0,0,1,1.256-.741l1.648.909a.847.847,0,0,0,1.256-.741v-27.644a.847.847,0,0,1,.847-.847h29.135Zm0,45.815V1146.69a.847.847,0,0,0-.847-.847h-11.934a.847.847,0,0,0-.847.847v21.331a.848.848,0,0,0,.423.733l11.934,6.909A.846.846,0,0,0,5341.94,1174.931Z" fill="#0ee89d"/>
    <path id="Path_2669" data-name="Path 2669" d="M5382.266,1140.245v8.17a1.846,1.846,0,0,1-1.846,1.846h-12.662a1.845,1.845,0,0,1-1.846-1.846v-15.99a1.846,1.846,0,0,1,2.816-1.57l12.662,7.819A1.849,1.849,0,0,1,5382.266,1140.245Zm-14.508,15.539h12.662a1.847,1.847,0,0,1,1.846,1.846v51.93a1.847,1.847,0,0,1-1.846,1.846h-12.662a1.846,1.846,0,0,1-1.846-1.846v-51.93A1.846,1.846,0,0,1,5367.758,1155.784Z" fill="#fcc204"/>
    <path id="Path_2670" data-name="Path 2670" d="M5435.359,1129.116a.86.86,0,0,1,.861.86V1155.6a.861.861,0,0,1-.861.861h-14.632a.86.86,0,0,1-.861-.861v-9.181a.861.861,0,0,0-.861-.861H5407.1a.861.861,0,0,0-.86.861v47.771a.86.86,0,0,0,.86.86H5419a.86.86,0,0,0,.861-.86h0v-19.882a.861.861,0,0,1,1.292-.745l14.632,8.471a.861.861,0,0,1,.43.745v27.765a.861.861,0,0,1-.861.861h-44.615a.862.862,0,0,1-.861-.861v-80.569a.861.861,0,0,1,.861-.86h44.615Z" fill="#0ee89d"/>
    <path id="Path_2671" data-name="Path 2671" d="M5474.855,1139.454h14.283a1.036,1.036,0,0,1,1.036,1.036v19.67a1.038,1.038,0,0,1-.527.9l-5.788,3.262a1.035,1.035,0,0,0-.013,1.8l5.813,3.382a1.034,1.034,0,0,1,.515.9v41.007H5473.82v-28.517a1.035,1.035,0,0,1,1.035-1.035h0a1.036,1.036,0,0,0,.521-1.931L5461.747,1172a1.036,1.036,0,0,0-1.556.9v37.475a1.035,1.035,0,0,1-1.035,1.036h-14.283a1.036,1.036,0,0,1-1.036-1.036v-80.219a1.035,1.035,0,0,1,1.036-1.035h14.283a1.034,1.034,0,0,1,1.035,1.035v22.558a1.036,1.036,0,0,0,.517.9l11.557,6.691a1.035,1.035,0,0,0,1.555-.9v-18.91A1.036,1.036,0,0,1,5474.855,1139.454Z" fill="#f65e7c"/>
    <g id="Rectangle_453" data-name="Rectangle 453" transform="translate(5420.161 1038.614)" fill="none" stroke="#fcc204" stroke-miterlimit="10" stroke-width="1.979">
      <rect width="70.042" height="82.343" rx="4.187" stroke="none"/>
      <rect x="0.99" y="0.99" width="68.062" height="80.364" rx="3.197" fill="none"/>
    </g>
    <g id="Group_1858" data-name="Group 1858">
      <text id="EVERY_DETAIL_MATTERS" data-name="EVERY DETAIL MATTERS" transform="translate(5342.896 1231.556)" fill="#0f1932" font-size="9.176" font-family="SegoeUI, Segoe UI" letter-spacing="0.09em"><tspan x="0" y="0">EVERY DETAIL MATTERS</tspan></text>
      <path id="Path_2672" data-name="Path 2672" d="M5490.174,1228.186l-15.7.63a.631.631,0,1,1-.051-1.26c.031-.008,15.715.632,15.755.63Z" fill="#f65e7c"/>
      <path id="Path_2673" data-name="Path 2673" d="M5312.47,1228.186l15.7.63a.631.631,0,1,0,.051-1.26c-.031-.008-15.715.632-15.755.63Z" fill="#f65e7c"/>
    </g>
    <g id="Group_1859" data-name="Group 1859">
      <path id="Path_2674" data-name="Path 2674" d="M5459.623,1077.8c3.82-3.713,7.39-7.572,11.831-10.445a25.968,25.968,0,0,1,4.355-2.329,14.954,14.954,0,0,1,1.6-.55c1.859-.516,3.24-.319,3.607.49.415.916-.317,2.2-1.879,3.252a54.1,54.1,0,0,1-6.588,3.669c-3.9,1.894-7.908,3.567-11.677,5.727A1.257,1.257,0,0,1,5459.623,1077.8Z" fill="#f65e7c"/>
      <path id="Path_2675" data-name="Path 2675" d="M5454.53,1074.449c-.276-5.082-1.531-9.711-2.034-14.449a28.306,28.306,0,0,1-.147-3.639c.022-.977.257-2.034,1.4-2.232,1.091-.189,1.595.738,1.96,1.586a17.479,17.479,0,0,1,.983,8.323,69.027,69.027,0,0,1-1.739,9.861C5454.926,1074,5454.812,1074.084,5454.53,1074.449Z" fill="#fcc204"/>
      <path id="Path_2676" data-name="Path 2676" d="M5456.337,1086.84c1.932,4.882,4.944,9.174,6.669,14.063a5,5,0,0,1,.305,2.17,1.156,1.156,0,0,1-1.846,1,4.487,4.487,0,0,1-1.75-1.882,25.071,25.071,0,0,1-2.864-9.935C5456.649,1090.456,5456.506,1088.647,5456.337,1086.84Z" fill="#fcc204"/>
      <path id="Path_2677" data-name="Path 2677" d="M5448.666,1076.647c-4.925-1.9-10.129-2.58-14.884-4.725a3.726,3.726,0,0,1-.984-.62,1.525,1.525,0,0,1-.6-1.613c.214-.664.787-.854,1.435-.917a10.294,10.294,0,0,1,4.8.965c3.8,1.5,6.947,4.041,10.142,6.5C5448.625,1076.271,5448.613,1076.392,5448.666,1076.647Z" fill="#0ee89d"/>
      <path id="Path_2678" data-name="Path 2678" d="M5450.256,1087.017c-1.145,2.856-2.308,5.705-3.428,8.571a39.966,39.966,0,0,1-2.822,6.15c-.538.9-1.2,2.006-2.4,1.505s-.9-1.766-.653-2.772a20.374,20.374,0,0,1,4.683-8.331c1.489-1.754,3.082-3.421,4.629-5.126Z" fill="#0f1932"/>
      <path id="Path_2679" data-name="Path 2679" d="M5446.567,1081.74c-4.949.407-9.764,1.8-14.761,1.844a2.734,2.734,0,0,1-.647-.048c-.758-.177-1.642-.264-1.8-1.231-.166-1.04.671-1.45,1.423-1.766a15.665,15.665,0,0,1,7.053-.8,54.736,54.736,0,0,1,8.328,1.445,1.671,1.671,0,0,1,.427.237Z" fill="#fcc204"/>
      <path id="Path_2680" data-name="Path 2680" d="M5457.832,1075.279c1.416-3.916,2.927-7.784,5.7-10.99a7.135,7.135,0,0,1,2.148-1.858c.482-.239,1.014-.41,1.46,0a1.214,1.214,0,0,1,.154,1.457,7.982,7.982,0,0,1-.764,1.352,71.363,71.363,0,0,1-6.246,7.3c-.822.908-1.351,2.09-2.475,2.723Z" fill="#0f1932"/>
      <path id="Path_2681" data-name="Path 2681" d="M5461.842,1080.632c3.969-1.135,7.888-2.425,12.084-2.19a9.53,9.53,0,0,1,2.79.563c.542.2,1.078.537,1,1.2a1.215,1.215,0,0,1-1.205,1.013,31.51,31.51,0,0,1-3.5.145C5469.281,1081.293,5465.582,1080.687,5461.842,1080.632Z" fill="#fcc204"/>
      <path id="Path_2682" data-name="Path 2682" d="M5449.387,1068.949c-2.39-2.6-5.245-4.759-7.287-7.682-.378-.54-.739-1.217-.165-1.772s1.23-.177,1.776.189a11.161,11.161,0,0,1,3.238,3.67A21.6,21.6,0,0,1,5449.387,1068.949Z" fill="#f65e7c"/>
      <path id="Path_2683" data-name="Path 2683" d="M5452.742,1090.6c-.118,2.954.439,5.88.369,8.827a10.071,10.071,0,0,1-.092,1.557c-.108.587-.213,1.316-.973,1.363s-.949-.647-1.108-1.236a10.1,10.1,0,0,1-.1-4.01A26.942,26.942,0,0,1,5452.742,1090.6Z" fill="#f65e7c"/>
      <path id="Path_2684" data-name="Path 2684" d="M5445.69,1085.551c-2.145,2.114-3.854,4.617-6.17,6.54a6.308,6.308,0,0,1-1.047.766.954.954,0,0,1-1.205-.142.915.915,0,0,1-.085-1.1,6.191,6.191,0,0,1,.767-1.2C5440.008,1087.99,5442.838,1086.767,5445.69,1085.551Z" fill="#fcc204"/>
      <path id="Path_2685" data-name="Path 2685" d="M5461.737,1087.916a17.6,17.6,0,0,1,5.347,3.4,6.852,6.852,0,0,1,2.023,2.653c.141.407.335.85-.072,1.2a1.049,1.049,0,0,1-1.322-.027,10.117,10.117,0,0,1-2.4-2.338c-1.278-1.512-2.5-3.068-3.747-4.6Z" fill="#fcc204"/>
      <path id="Path_2686" data-name="Path 2686" d="M5464.942,1084.929c2.572.139,5.126.224,7.471,1.364a8.565,8.565,0,0,1,1.113.653c.5.346,1.138.78.812,1.434-.363.728-1.116.421-1.739.239a.766.766,0,0,1-.123-.041Z" fill="#0ee89d"/>
      <path id="Path_2687" data-name="Path 2687" d="M5480.649,1086.968a1.338,1.338,0,0,1-1.485,1.454,1.359,1.359,0,0,1-1.424-1.519,1.456,1.456,0,0,1,2.909.065Z" fill="#f65e7c"/>
      <path id="Path_2688" data-name="Path 2688" d="M5437.477,1098.02a1.42,1.42,0,1,1-2.84-.013,1.423,1.423,0,0,1,2.84.013Z" fill="#fcc204"/>
      <path id="Path_2689" data-name="Path 2689" d="M5463.045,1056.148c.828.016,1.158.4,1.128.978a.9.9,0,0,1-1.044.887.873.873,0,0,1-.861-.936C5462.267,1056.445,5462.617,1056.151,5463.045,1056.148Z" fill="#fcc204"/>
      <path id="Path_2690" data-name="Path 2690" d="M5467.407,1102.754c-.016.626-.3,1-.842,1.008a.8.8,0,0,1-.826-.812.752.752,0,0,1,.835-.889A.739.739,0,0,1,5467.407,1102.754Z" fill="#fcc204"/>
      <path id="Path_2691" data-name="Path 2691" d="M5430.226,1074.073a.857.857,0,0,1,.795.988.779.779,0,0,1-.874.743c-.565-.022-.811-.417-.764-.96A.827.827,0,0,1,5430.226,1074.073Z" fill="#0ee89d"/>
      <path id="Path_2692" data-name="Path 2692" d="M5457.813,1075.264l-.049.338c-.26-.168-.021-.23.069-.323Z" fill="#fff"/>
      <path id="Path_2693" data-name="Path 2693" d="M5450.262,1087.014l.03-.03-.037.033Z" fill="#fff"/>
    </g>
  </g>
</svg>
